<svg width="40" height="41" viewBox="0 0 40 41" fill="none" xmlns="http://www.w3.org/2000/svg">
<rect x="5.64258" y="13.7803" width="29.1719" height="25.857" rx="1" stroke="url(#paint0_linear)" stroke-width="2"/>
<rect width="23.6726" height="2.8075" rx="1" transform="matrix(0.849218 -0.528043 0.472471 0.881346 0 13.1375)" fill="url(#paint1_linear)"/>
<rect width="23.6726" height="2.8075" rx="1" transform="matrix(0.849218 0.528043 0.472471 -0.881346 18.5703 3.11176)" fill="url(#paint2_linear)"/>
<rect x="15.7539" y="21.1374" width="8.28527" height="8.99988" rx="0.5" stroke="url(#paint3_linear)"/>
<rect x="19.2339" y="20.6374" width="1.32646" height="9.99988" fill="url(#paint4_linear)"/>
<rect x="15.9175" y="24.923" width="7.29555" height="1.42874" fill="url(#paint5_linear)"/>
<defs>
<linearGradient id="paint0_linear" x1="20.2285" y1="12.7803" x2="20.2285" y2="40.6373" gradientUnits="userSpaceOnUse">
<stop stop-color="#445EF2"/>
<stop offset="1" stop-color="#EF4444"/>
</linearGradient>
<linearGradient id="paint1_linear" x1="11.8363" y1="0" x2="11.8363" y2="2.8075" gradientUnits="userSpaceOnUse">
<stop stop-color="#7844F2"/>
<stop offset="1" stop-color="#EF4444"/>
</linearGradient>
<linearGradient id="paint2_linear" x1="11.8363" y1="0" x2="11.8363" y2="2.8075" gradientUnits="userSpaceOnUse">
<stop stop-color="#7844F2"/>
<stop offset="1" stop-color="#EF4444"/>
</linearGradient>
<linearGradient id="paint3_linear" x1="19.8965" y1="20.6374" x2="19.8965" y2="30.6373" gradientUnits="userSpaceOnUse">
<stop stop-color="#445EF2"/>
<stop offset="1" stop-color="#EF4444"/>
</linearGradient>
<linearGradient id="paint4_linear" x1="19.8971" y1="20.6374" x2="19.8971" y2="30.6373" gradientUnits="userSpaceOnUse">
<stop stop-color="#7844F2"/>
<stop offset="1" stop-color="#EF4444"/>
</linearGradient>
<linearGradient id="paint5_linear" x1="19.5653" y1="24.923" x2="19.5653" y2="26.3517" gradientUnits="userSpaceOnUse">
<stop stop-color="#7844F2"/>
<stop offset="1" stop-color="#EF4444"/>
</linearGradient>
</defs>
</svg>
