<svg width="40" height="41" viewBox="0 0 40 41" fill="none" xmlns="http://www.w3.org/2000/svg">
<rect x="1.5" y="2.13733" width="37" height="37" rx="4.5" stroke="url(#paint0_linear)" stroke-width="3"/>
<ellipse cx="20.6665" cy="21.3038" rx="2" ry="1.99999" fill="url(#paint1_linear)"/>
<ellipse cx="16.6668" cy="21.304" rx="3.33333" ry="0.666692" fill="url(#paint2_linear)"/>
<ellipse cx="20.6668" cy="15.304" rx="5.33328" ry="0.666666" transform="rotate(90 20.6668 15.304)" fill="url(#paint3_linear)"/>
<rect x="20" y="4.63715" width="1.33333" height="2.6666" fill="url(#paint4_linear)"/>
<rect x="20" y="33.9706" width="1.33333" height="2.6666" fill="url(#paint5_linear)"/>
<rect x="36" y="20.6373" width="1.33338" height="2.66667" transform="rotate(90 36 20.6373)" fill="url(#paint6_linear)"/>
<rect x="6.6665" y="20.6373" width="1.33338" height="2.66667" transform="rotate(90 6.6665 20.6373)" fill="url(#paint7_linear)"/>
<defs>
<linearGradient id="paint0_linear" x1="20" y1="0.637329" x2="20" y2="40.6373" gradientUnits="userSpaceOnUse">
<stop stop-color="#445EF2"/>
<stop offset="1" stop-color="#EF4444"/>
</linearGradient>
<linearGradient id="paint1_linear" x1="20.6665" y1="19.3038" x2="20.6665" y2="23.3038" gradientUnits="userSpaceOnUse">
<stop stop-color="#445EF2"/>
<stop offset="1" stop-color="#EF4444"/>
</linearGradient>
<linearGradient id="paint2_linear" x1="16.6668" y1="20.6373" x2="16.6668" y2="21.9707" gradientUnits="userSpaceOnUse">
<stop stop-color="#445EF2"/>
<stop offset="1" stop-color="#EF4444"/>
</linearGradient>
<linearGradient id="paint3_linear" x1="20.6668" y1="14.6373" x2="20.6668" y2="15.9707" gradientUnits="userSpaceOnUse">
<stop stop-color="#445EF2"/>
<stop offset="1" stop-color="#EF4444"/>
</linearGradient>
<linearGradient id="paint4_linear" x1="20.6667" y1="4.63715" x2="20.6667" y2="7.30375" gradientUnits="userSpaceOnUse">
<stop stop-color="#445EF2"/>
<stop offset="1" stop-color="#EF4444"/>
</linearGradient>
<linearGradient id="paint5_linear" x1="20.6667" y1="33.9706" x2="20.6667" y2="36.6372" gradientUnits="userSpaceOnUse">
<stop stop-color="#445EF2"/>
<stop offset="1" stop-color="#EF4444"/>
</linearGradient>
<linearGradient id="paint6_linear" x1="36.6667" y1="20.6373" x2="36.6667" y2="23.3039" gradientUnits="userSpaceOnUse">
<stop stop-color="#445EF2"/>
<stop offset="1" stop-color="#EF4444"/>
</linearGradient>
<linearGradient id="paint7_linear" x1="7.3332" y1="20.6373" x2="7.3332" y2="23.3039" gradientUnits="userSpaceOnUse">
<stop stop-color="#445EF2"/>
<stop offset="1" stop-color="#EF4444"/>
</linearGradient>
</defs>
</svg>
