<svg width="40" height="41" viewBox="0 0 40 41" fill="none" xmlns="http://www.w3.org/2000/svg">
<path d="M36.9231 37.4373V15.0374C36.9231 14.1526 36.2354 13.4374 35.3846 13.4374H29.2308C28.38 13.4374 27.6923 14.1526 27.6923 15.0374V37.4373H24.6154V24.6374C24.6154 23.7526 23.9277 23.0374 23.0769 23.0374H16.9231C16.0723 23.0374 15.3846 23.7526 15.3846 24.6374V37.4373H12.3077V29.4374C12.3077 28.5526 11.62 27.8374 10.7692 27.8374H4.61538C3.76462 27.8374 3.07692 28.5526 3.07692 29.4374V37.4373H0V40.6373H40V37.4373H36.9231ZM30.7692 16.6374H33.8462V37.4373H30.7692V16.6374ZM18.4615 26.2374H21.5385V37.4373H18.4615V26.2374ZM6.15385 31.0373H9.23077V37.4373H6.15385V31.0373Z" fill="url(#paint0_linear)"/>
<path d="M14.4842 10.2373H23.078C23.4873 10.2373 23.878 10.0693 24.1657 9.76849L27.6934 6.0997V10.2373H30.7703V2.23732C30.7703 1.35253 30.0827 0.637329 29.2319 0.637329H21.5396V3.83731H25.518L22.4411 7.0373H13.8473C13.438 7.0373 13.0473 7.2053 12.7596 7.5061L3.52881 17.1061L5.7042 19.3684L14.4842 10.2373Z" fill="url(#paint1_linear)"/>
<defs>
<linearGradient id="paint0_linear" x1="20" y1="13.4374" x2="20" y2="40.6373" gradientUnits="userSpaceOnUse">
<stop stop-color="#445EF2"/>
<stop offset="1" stop-color="#EF4444"/>
</linearGradient>
<linearGradient id="paint1_linear" x1="17.1496" y1="0.637329" x2="17.1496" y2="19.3684" gradientUnits="userSpaceOnUse">
<stop stop-color="#445EF2"/>
<stop offset="1" stop-color="#EF4444"/>
</linearGradient>
</defs>
</svg>
